# xmcd CD database file
#
# Track frame offsets:
#	150
#	27787
#	49717
#	72690
#	90715
#	116377
#	149575
#	170157
#	186062
#	208470
#
# Disc length: 3194 seconds
#
# Revision: 32
# Processed by: cddbd v1.5.2PL0 Copyright (c) Steve Scherf et al.
# Submitted via: CDex 1.70beta3
#
DISCID=9a0c780a
DTITLE=ディープ・パープル - マシン・ヘッド～アニヴァーサリー・エディション CD2
DYEAR=1998
DGENRE=Hard Rock
TTITLE0=ハイウェイ・スター
TTITLE1=メイビー・アイム・ア・レオ 
TTITLE2=ピクチャー・オブ・ホーム 
TTITLE3=ネヴァー・ビフォア 
TTITLE4=スモーク・オン・ザ・ウォーター 
TTITLE5=レイジー 
TTITLE6=スペース・トラッキン 
TTITLE7=ブラインド・マン(オリジナルBサイド) 
TTITLE8=メイビー・アイム・ア・レオ(クアドロフォニック・ミックス) 	
TTITLE9=レイジー(クアドロフォニック・ミックス) 
EXTD=YEAR: 1998
EXTT0=
EXTT1=
EXTT2=
EXTT3=
EXTT4=
EXTT5=
EXTT6=
EXTT7=
EXTT8=
EXTT9=
PLAYORDER=
